<svg width="103" height="121" viewBox="0 0 103 121" fill="none" xmlns="http://www.w3.org/2000/svg">
<path d="M91.8644 41.4428H69.7028C69.1061 48.3717 68.2098 52.1293 64.5886 58.3471C60.2976 64.4905 56.5946 66.735 48.3936 69.2532H34.7557C33.2967 81.6054 32.3064 88.3541 30.2098 100.063C29.8754 102.509 29.2392 103.811 27.6527 106.061C19.5043 113.682 0.0927734 119.421 0.0927734 119.421C0.0927734 119.421 9.51221 120.724 21.402 119.421C33.2917 118.118 39.7334 116.804 50.0984 111.514C60.7565 105.599 65.8307 101.64 73.3964 93.5191C79.4516 85.4793 82.3356 80.6243 85.8978 70.8891C89.46 61.1538 91.8644 41.4428 91.8644 41.4428Z" fill="#FF7043" stroke="#FF7043" stroke-width="0.654361"/>
<path d="M12.5942 27.3967L0.0927734 119.28C10.6081 115.48 27.9509 111.136 30.4939 99.6491C33.0369 88.162 34.6298 68.8109 35.324 68.8396H48.3936C54.6822 66.7712 57.5818 65.2816 61.7474 62.0233C67.7701 53.8642 69.2583 49.2608 69.7028 41.0292H40.7223C41.4784 33.8157 43.8928 30.7535 51.8031 27.3967H84.4772C91.7254 25.2416 95.0647 23.3182 98.1151 17.036C100.551 11.5613 101.492 7.94648 102.093 0.131661C102.093 0.131661 56.6332 -0.626277 42.7112 1.49491C28.7892 3.61611 17.3142 11.8317 12.5942 27.3967Z" fill="#0C65BD"/>
</svg>
